# xmcd
#
# Track frame offsets: 
#        150
#        11472
#        25605
#        36135
#        49362
#        60027
#        72890
#        86447
#        97545
#        113454
#
# Disc length: 1682 seconds
#
# Revision: 1
# Processed by: cddbd v1.5.2PL0 Copyright (c) Steve Scherf et al.
# Submitted via: ExactAudioCopy v1.1
#
DISCID=6106900a
DTITLE=Moot Davis - Moot Davis
DYEAR=2003
DGENRE=Country
TTITLE0=Thick Of It Now
TTITLE1=Highway Kind
TTITLE2=Jug Of Wine
TTITLE3=Whiskey Town
TTITLE4=Thanks For Breakin' My Heart
TTITLE5=Last Train Home
TTITLE6=Nothin'
TTITLE7=One Of A Kind
TTITLE8=Halls Of Smoke And Wine
TTITLE9=Stay Gone
EXTD=
EXTT0=
EXTT1=
EXTT2=
EXTT3=
EXTT4=
EXTT5=
EXTT6=
EXTT7=
EXTT8=
EXTT9=
PLAYORDER=
